<?xml version="1.0" encoding="UTF-8"?>
<svg id="Layer_2" data-name="Layer 2" xmlns="http://www.w3.org/2000/svg" viewBox="0 0 88.78 86.21">
  <defs>
    <style>
      .cls-1 {
        fill: #2350a3;
      }

      .cls-2 {
        fill: #14a54a;
      }
    </style>
  </defs>
  <g id="Layer_1-2" data-name="Layer 1">
    <g>
      <path class="cls-1" d="M76.2,19.71c-2.86-2.16-6.94-1.71-9.49.58-2.81,2.52-4.89,5.3-7.84,7.59l-7.87-7.99,7.54-7.71c2.93-2.99,2.78-7.51-.07-10.24-2.73-2.62-7.18-2.6-9.97.15l-7.9,7.83c-3.27-1.55-6.38-.61-8.34,1.26-2.4,2.29-2.23,5.38-1.43,8.4-3.05,3.43-6.68,7.23-10.2,10.2-3.66,3.09-2.78,6.11-3.23,10.21-.24,2.18-5,4.43-3.52,7.78,2.41,5.41-8.61,6.45-1.35,15.81l2.77,2.82c9.68,7.19,10.4-3.86,15.08-1.54,3.87,1.91,6.12-3.11,8.73-3.47,3.44-.48,6.45.7,9.35-2.6,3.14-3.57,6.98-7.43,10.69-10.68,3.21.89,6.35.69,8.65-1.51,2.34-2.25,1.61-5.35,1.57-8.26,1.75-3.46,5.93-5.63,8.12-8.9,2.04-3.05,1.63-7.51-1.31-9.73ZM55.73,4.66c1.26,1.11,1.45,3.21.03,4.64l-7.49,7.51c-2.19-1.2-3.02-2.73-4.68-4.26,3.45-2.8,8.43-11.15,12.14-7.88ZM20.99,64.83c-2.23.27-7.32-4.95-6.98-7.15.19-1.24,2.2-4.05,3.4-3.33,3.1,1.87,4.87,4.86,7.71,7.11-.86,1.64-2.25,3.15-4.13,3.37ZM30.56,60.87c-4.73-3.71-8.68-8.04-12.5-12.32-1.74-1.95,1.07-5.19,3.09-5.58l15.02,15.01c-.77,1.37-3.57,4.49-5.61,2.89ZM44.97,56.68c-1.17,1.17-2.97,1.17-4.52.09l-17.92-17.93c-1.67-1.52-1.65-3.71-.07-5.27l11.13-10.99,22.68,22.75-11.29,11.35ZM65.06,43.8c-1.22,1.32-3.19,1.49-4.75-.07l-25.48-25.52c-1.2-1.2-.87-3.14-.08-4.14.68-.85,3.06-1.78,4.26-.59l25.66,25.54c1.57,1.56,1.56,3.52.39,4.78ZM66.62,35.12c-2.16-1.11-2.98-2.66-4.68-4.22,2.48-2.92,5.19-5.32,7.96-8.05,1.14-1.13,2.96-.82,3.9-.03,4.28,3.6-4.23,8.49-7.19,12.3Z"/>
      <path class="cls-2" d="M86.97,86.08c-5.1.21-10.14.12-15.28.05-3.43-.05-6.04-2.07-6.95-4.88-2.21-6.84,5.45-9.01,5.53-12.41.05-2.45-5.43-8.17-7.98-5.65l-20.89,20.65c-1.56,1.54-3.62,2.34-5.88,2.34l-28.42-.06c-3.08-.01-5.35-1.76-6.31-3.87-1.33-2.88-1-5.92,1.22-8.13l10.55-10.53,2.77,2.82-10.69,10.43c-.98.96-.94,2.48-.43,3.58.52,1.11,1.81,1.92,3.44,1.91l29.59-.1,21.45-21.19c3.89-3.85,8.71-2.45,12.14,1.19,2.74,2.9,4.75,6.39,2.23,10.27-1.86,2.86-5.48,4.43-4.56,7.53.34,1.16,1.57,2.23,3.21,2.24l14.79.05c1.22,0,2.03.47,2.23,1.41.22.99-.33,2.29-1.76,2.35Z"/>
    </g>
  </g>
</svg>