<?xml version="1.0" encoding="UTF-8"?>
<svg id="Layer_2" data-name="Layer 2" xmlns="http://www.w3.org/2000/svg" viewBox="0 0 68.44 56.53">
  <defs>
    <style>
      .cls-1 {
        fill: #2350a3;
      }

      .cls-2 {
        fill: #174caa;
      }
    </style>
  </defs>
  <g id="Layer_1-2" data-name="Layer 1">
    <g>
      <path class="cls-1" d="M54.88,28.24c0,7.95,0,15.91,0,23.86,0,3.46-3.64,5.54-6.62,3.8-1.36-.8-2.12-2.02-2.13-3.62,0-.59-.19-1.01-.6-1.42-2.83-2.84-6.08-5.12-9.58-7.04-4.87-2.67-9.97-4.8-15.43-5.94-1.54-.32-1.19-.41-1.54.94-.86,3.32-1.67,6.66-2.5,9.99-.35,1.39-.78,1.73-2.23,1.73-1.58,0-3.16,0-4.75,0-1.3,0-1.89-.61-1.89-1.92,0-3.43-.02-6.87.01-10.3,0-.62-.17-.85-.8-.8-.65.05-1.31.02-1.96,0-2.68-.03-4.82-2.16-4.83-4.84C0,29.73,0,26.77.01,23.81c.02-2.66,2.17-4.8,4.85-4.81,3.21-.02,6.42-.11,9.62.02,4,.17,7.81-.59,11.55-1.91,5.76-2.04,11.2-4.7,16.06-8.44,1.26-.96,2.43-2.02,3.55-3.14.33-.33.47-.67.47-1.14.02-2.26,1.7-4.16,3.84-4.36,2.37-.22,4.38,1.21,4.85,3.49.08.39.08.81.08,1.21,0,7.83,0,15.67,0,23.51ZM46.11,28.25V10.83c0-.16,0-.32,0-.47,0-.13.05-.3-.09-.37-.15-.08-.24.07-.34.15-.44.36-.86.73-1.31,1.07-7.18,5.42-15.15,9.1-23.98,10.88-.63.12-.78.38-.77.98.03,3.46.03,6.91,0,10.37,0,.68.23.86.84.99,9.28,1.92,17.63,5.82,25.02,11.76.16.13.3.44.54.32.21-.11.09-.42.09-.63,0-5.88,0-11.75,0-17.63ZM49.46,28.25v23.32c0,1,.37,1.55,1.04,1.54.67,0,1.04-.54,1.04-1.55V4.93c0-.3,0-.59-.11-.87-.17-.43-.49-.67-.93-.67s-.76.24-.93.67c-.13.33-.11.67-.11,1v23.19ZM16.28,28.25c0-1.76-.01-3.53,0-5.29,0-.46-.14-.65-.62-.64-1.35.02-2.71.03-4.07,0-.51-.01-.66.18-.65.67.02,3.5.02,7,0,10.51,0,.49.14.68.65.67,1.33-.03,2.67-.03,4,0,.55.02.7-.19.69-.71-.03-1.74-.01-3.48-.01-5.22ZM7.6,28.29c0-1.76-.01-3.53,0-5.29,0-.49-.13-.71-.65-.68-.61.03-1.22-.01-1.83.02-1.12.05-1.74.62-1.76,1.74-.03,2.78-.03,5.56,0,8.34.01,1.12.62,1.69,1.75,1.74.61.03,1.22-.02,1.83.02.51.03.67-.17.66-.67-.02-1.74-.01-3.48-.01-5.22ZM10.95,42.32v3.11c0,1.79,0,1.78,1.79,1.76.42,0,.65-.11.76-.56.69-2.85,1.4-5.69,2.13-8.53.12-.47,0-.61-.47-.6-1.2.02-2.39.03-3.59,0-.53-.02-.65.21-.64.68.02,1.38,0,2.76,0,4.13Z"/>
      <path class="cls-2" d="M56.97,16.37c.02-.58.36-1.1.96-1.4,1.64-.81,3.28-1.6,4.95-2.36.87-.39,1.78-.03,2.18.79.39.79.17,1.75-.65,2.17-1.72.89-3.46,1.75-5.25,2.51-1.05.45-2.19-.45-2.2-1.72Z"/>
      <path class="cls-2" d="M63.54,44.02c-.25.02-.5-.04-.72-.15-1.61-.76-3.22-1.52-4.82-2.3-.77-.38-1.13-1.11-1.01-1.82.12-.72.67-1.25,1.39-1.4.35-.07.68-.02.99.12,1.67.79,3.36,1.55,4.99,2.42,1.15.61,1.19,2.15.14,2.86-.29.19-.61.29-.96.27Z"/>
      <path class="cls-2" d="M64.05,29.93c-.88,0-1.76,0-2.64,0-1.05-.02-1.74-.68-1.74-1.66,0-1,.66-1.68,1.71-1.68,1.78-.02,3.56-.02,5.35,0,1.05,0,1.71.69,1.71,1.68,0,.99-.68,1.63-1.74,1.66-.45,0-.9,0-1.35,0h-1.29Z"/>
    </g>
  </g>
</svg>