<?xml version="1.0" encoding="UTF-8"?>
<svg id="Layer_2" data-name="Layer 2" xmlns="http://www.w3.org/2000/svg" viewBox="0 0 91.57 91.6">
  <defs>
    <style>
      .cls-1 {
        fill: #2350a3;
      }

      .cls-2 {
        fill: #14a54a;
      }
    </style>
  </defs>
  <g id="Layer_1-2" data-name="Layer 1">
    <g>
      <path class="cls-1" d="M47.68,69.02c-.02.81-1.04,2.19-1.68,2.28-.78.11-2.19-1.18-2.21-1.99l-.15-6.9c-3.15-.93-5.27-1.83-8.1-3.45l-5.19,4.99c-.37.35-1.91.22-2.36,0-.57-.27-.79-2.15-.31-2.65l5.02-5.17c-1.48-2.65-2.5-4.94-3.49-8.13l-6.76-.18c-.71-.02-1.97-1.03-2.11-1.67-.16-.76,1.19-2.21,2.04-2.22l6.75-.08c.96-2.94,1.88-5.21,3.59-8.13l-4.76-4.9c-.5-.52-.63-2.14-.28-2.66.41-.62,2.37-.71,2.93-.15l4.87,4.84c2.65-1.5,4.94-2.5,8.16-3.49l.17-6.81c.02-.69,1.03-1.94,1.67-2.07.76-.15,2.21,1.19,2.23,2.04l.09,6.73c3,1.01,5.45,2.07,8.21,3.58l4.85-4.79c.47-.47,2.06-.55,2.61-.26s.82,2.23.34,2.71l-4.99,5.12c1.46,2.65,2.47,4.95,3.46,8.17l6.86.14c.68.01,1.95,1.01,2.03,1.67.1.88-1.09,2.24-1.96,2.26l-6.95.12c-.91,3.18-1.79,5.26-3.46,8.12l4.81,4.9c.46.47.48,2.1.21,2.66s-2.15.76-2.61.32l-5.2-5.04c-2.65,1.49-4.93,2.51-8.13,3.48l-.16,6.6ZM45.06,33.5c-7.36.28-12.12,6.5-11.77,13.07.37,7.02,6.16,11.96,12.74,11.76,7.24-.23,12.25-5.9,12.1-12.79-.15-6.83-5.61-12.32-13.07-12.04Z"/>
      <path class="cls-1" d="M85.27,40.32l-11.7-5.76c-.66-.33-1.26-2.13-.96-2.85.32-.78,2.14-1.16,2.92-.72l5.53,3.07c-3.79-12.07-14.62-21.77-27.2-24.69-.94-.22-1.77-1.75-1.72-2.4.06-.78,1.65-1.69,2.66-1.45,14.14,3.39,24.91,13.39,30.12,27.02l3.28-5.84c.27-.47,1.95-.73,2.45-.57.63.2,1.14,1.82.81,2.44l-6.19,11.74Z"/>
      <path class="cls-1" d="M36.84,82.42c1.14.31,2.14,1.14,2.32,1.72.21.69-1.31,2.39-2.04,2.24-14.27-2.97-25.39-13.2-30.58-26.98l-2.92,5.04c-.41.7-1.94,1.38-2.71,1.08-.68-.27-1.14-1.95-.8-2.62l5.01-9.77c.35-.68,2.18-1.26,2.82-.93l9.69,5.13c.67.36,1.16,2.03.91,2.65s-1.71,1.22-2.36.93l-5.69-2.49c4.26,11.92,13.98,20.71,26.34,24.02Z"/>
      <path class="cls-2" d="M33.12,10.71c-12.16,4.3-21.06,14.46-24,27.12-.19.8-2.16,1.73-2.75,1.33s-1.16-1.78-.96-2.65c3.32-14.12,13.09-24.68,26.67-29.74l-4.98-2.98c-.67-.4-1.4-1.85-1.14-2.73.21-.72,1.97-1.31,2.65-.94l11.41,6.14-5.77,11.69c-.35.71-2.42,1.14-2.94.56-2.21-2.43.91-3.42,1.83-7.8Z"/>
      <path class="cls-2" d="M53.28,86.74c-.92-.46-1.81-2.08-1.29-3.07l5.16-9.82c.27-.52,1.64-1.08,2.2-.92,3.07.84-.46,6.18-1.79,8.45,11.9-4.08,21.6-14.16,24.47-27.11.19-.84,1.79-1.95,2.5-1.79s1.72,1.58,1.56,2.3c-3.33,14.36-13.03,25.04-26.97,30.31l5.36,3.16c.58.34,1.1,1.89.83,2.43-.33.64-1.91,1.15-2.56.82l-9.47-4.76Z"/>
    </g>
  </g>
</svg>