<?xml version="1.0" encoding="UTF-8"?>
<svg id="Layer_2" data-name="Layer 2" xmlns="http://www.w3.org/2000/svg" viewBox="0 0 77.98 91.6">
  <defs>
    <style>
      .cls-1 {
        fill: #2350a3;
      }

      .cls-2 {
        fill: #14a54a;
      }
    </style>
  </defs>
  <g id="Layer_1-2" data-name="Layer 1">
    <g>
      <path class="cls-1" d="M77.95,72.95l-5.6-33.02-18.07-.2s0-.01.01-.02h-4.17s-.02.04-.03.05l-22.2.08s-.05-.08-.08-.12h-4.14s-18.07.2-18.07.2L.02,72.94c-.21,1.26,1.06,2.62,2.35,2.62h29.34s-.03,12.07-.03,12.07H10.17c-1.06-.01-2.41,1.36-2.23,2.3.13.68,1.41,1.66,2.33,1.66h57.67c1.16-.01,2.29-1.48,2.12-2.16-.17-.67-1.53-1.81-2.24-1.81l-21.57-.02.03-12.03h29.31c1.29-.01,2.57-1.37,2.35-2.63ZM53.05,43.84l.48,6.48-12.47.05-.07-6.55,12.06.02ZM40.99,54.35h12.95s.51,6.72.51,6.72l-13.46-.05v-6.67ZM24.92,43.87l11.98-.09.1,6.58-12.55-.04.47-6.45ZM24.02,54.36l12.96-.02.05,6.68-13.47.05.46-6.71ZM18.68,71.55l-14.28.03.95-6.55h13.74s-.42,6.52-.42,6.52ZM19.56,61.05H6.16s.96-6.71.96-6.71h12.96s-.52,6.71-.52,6.71ZM20.38,50.36l-12.48-.03.92-6.47,12.11-.05-.55,6.55ZM22.65,71.56l.58-6.58,13.73.09.05,6.51h-14.37ZM35.7,87.57l-.07-11.9,6.68-.09.05,11.9-6.66.09ZM40.99,71.57l.06-6.54,13.69-.03.62,6.55-14.37.02ZM57.01,43.83l12.06-.04,1.04,6.52-12.49.06-.6-6.54ZM57.88,54.33h12.95s1.08,6.69,1.08,6.69l-13.45.05-.58-6.74ZM59.44,71.61l-.61-6.58h13.76l1.06,6.49-14.21.09Z"/>
      <path class="cls-2" d="M68.32,33.16l-11.64.16c-.43,2.54-1,4.39-2.38,6.4h-4.17c4.45-6.51,3.3-14.47-2.16-19.07-5.33-4.5-13.65-4.22-18.56.57-5.1,4.99-5.67,12.58-1.59,18.51h-4.14c-1.37-2.02-1.94-3.85-2.43-6.41l-11.32-.15c-.79,0-2-1.17-2.09-1.74-.11-.68,1.12-2.11,1.83-2.11l11.48-.05,1.39-5.14-9.71-5.89c-.48-.29-.98-1.59-.91-2.14.08-.69,2.02-1.48,2.61-1.15l9.96,5.58,3.89-3.64-5.46-9.65c-.4-.71-.35-2.21.18-2.71.53-.49,2.58-.24,2.99.47l5.69,9.85,5.18-1.51V2.28c0-.73,1.06-2.16,1.77-2.27.92-.15,2.19,1.29,2.2,2.3l.06,11.19,5.18,1.32,5.43-9.46c.34-.58,1.6-1.26,2.21-1.26.73,0,1.95,1.72,1.56,2.41l-5.76,10.24,3.77,3.95,9.41-5.49c.75-.44,2.55-.12,2.97.42.51.64-.11,2.45-.86,2.89l-9.57,5.63,1.46,5.14,11.21.04c.69,0,1.85,1.03,2.08,1.58.27.67-1.04,2.27-1.78,2.27Z"/>
    </g>
  </g>
</svg>